<svg width="180" height="180" viewBox="0 0 180 180" fill="none" xmlns="http://www.w3.org/2000/svg">
<rect width="180" height="180" rx="15" fill="#0EA4E9"/>
<path d="M43.3332 136.667H136.666V148.333H43.3332V136.667ZM142.5 49.1667C140.953 49.1667 139.469 49.7813 138.375 50.8753C137.281 51.9693 136.666 53.453 136.666 55.0001C136.667 55.6634 136.794 56.3206 137.04 56.9367C137.28 57.5327 137.608 58.0892 138.014 58.5876L125.647 68.4576L113.298 78.3334L103.067 60.4076L92.8465 42.4876C93.7225 41.9888 94.4619 41.2815 94.999 40.4284C95.545 39.5493 95.834 38.5349 95.8332 37.5001C95.8332 35.953 95.2186 34.4693 94.1246 33.3753C93.0307 32.2813 91.5469 31.6667 89.9998 31.6667C88.4527 31.6667 86.969 32.2813 85.8751 33.3753C84.7811 34.4693 84.1665 35.953 84.1665 37.5001C84.1657 38.5349 84.4547 39.5493 85.0007 40.4284C85.5378 41.2815 86.2772 41.9888 87.1532 42.4876L76.9157 60.4076L66.6782 78.3334L54.3348 68.4634L41.9857 58.5876C42.3912 58.0892 42.7196 57.5327 42.9598 56.9367C43.2055 56.3206 43.3322 55.6634 43.3332 55.0001C43.3332 53.8464 42.9911 52.7185 42.3501 51.7593C41.7091 50.8 40.7981 50.0523 39.7322 49.6108C38.6663 49.1693 37.4934 49.0538 36.3618 49.2788C35.2303 49.5039 34.1909 50.0595 33.3751 50.8753C32.5592 51.6911 32.0037 52.7305 31.7786 53.8621C31.5535 54.9936 31.669 56.1665 32.1105 57.2324C32.5521 58.2983 33.2997 59.2093 34.259 59.8503C35.2183 60.4913 36.3461 60.8334 37.4998 60.8334C37.5808 60.8282 37.6609 60.8145 37.739 60.7926C37.8164 60.7648 37.8966 60.7452 37.9782 60.7342L40.6557 92.8701L43.3332 125H136.666L139.344 92.8701L142.021 60.7342C142.101 60.7456 142.179 60.7651 142.255 60.7926C142.335 60.8149 142.417 60.8286 142.5 60.8334C144.047 60.8334 145.531 60.2188 146.625 59.1249C147.719 58.0309 148.333 56.5472 148.333 55.0001C148.333 53.453 147.719 51.9693 146.625 50.8753C145.531 49.7813 144.047 49.1667 142.5 49.1667Z" fill="white"/>
<path d="M94.1665 95.8333H98.3332V97.4103C99.745 96.467 101.386 95.9249 103.082 95.8417C104.778 95.7585 106.465 96.1375 107.962 96.9381C109.459 97.7388 110.711 98.931 111.584 100.388C112.456 101.844 112.917 103.51 112.917 105.208V116.667H108.75V105.208C108.75 102.229 106.304 99.9999 103.542 99.9999C100.779 99.9999 98.3332 102.229 98.3332 105.208V116.667H94.1665V95.8333ZM89.9998 83.3333V87.4999H73.3332V97.9166H89.9998V102.083H73.3332V112.5H89.9998V116.667H69.1665V83.3333H89.9998Z" fill="#0EA4E9"/>
</svg>
